<svg xmlns="http://www.w3.org/2000/svg" width="1200" height="760" viewBox="0 0 1200 760" role="img" aria-labelledby="title desc">
  <title id="title">NeXa RoVe hardware media and control flow</title>
  <desc id="desc">Public-safe flow showing media input, local interface feedback, and cautious prototype control.</desc>
  <defs>
    <linearGradient id="panel" x1="0" x2="1" y1="0" y2="1">
      <stop offset="0" stop-color="#182432" stop-opacity="0.94"/>
      <stop offset="1" stop-color="#070a11" stop-opacity="0.96"/>
    </linearGradient>
    <linearGradient id="accent" x1="0" x2="1">
      <stop offset="0" stop-color="#74f0e3"/>
      <stop offset="1" stop-color="#9fb4ff"/>
    </linearGradient>
  </defs>
  <rect width="1200" height="760" fill="#03060b"/>
  <rect x="26" y="24" width="1148" height="712" rx="28" fill="url(#panel)" stroke="#d8e7f7" stroke-opacity="0.18"/>
  <text x="88" y="86" fill="#f5fbff" font-family="Inter, Segoe UI, Arial, sans-serif" font-size="34" font-weight="760">Hardware, media, and control flow</text>
  <text x="88" y="116" fill="#aebdcb" font-family="Inter, Segoe UI, Arial, sans-serif" font-size="16">Public view of prototype signal categories and visible feedback</text>
  <path d="M88 136h1024" stroke="url(#accent)" stroke-width="2" stroke-opacity="0.58"/>

  <g font-family="Inter, Segoe UI, Arial, sans-serif">
    <g fill="#101925" stroke="#d8e7f7" stroke-opacity="0.2">
      <rect x="88" y="228" width="216" height="132" rx="18"/>
      <rect x="88" y="430" width="216" height="132" rx="18"/>
      <rect x="400" y="296" width="240" height="164" rx="20"/>
      <rect x="736" y="228" width="216" height="132" rx="18"/>
      <rect x="736" y="430" width="216" height="132" rx="18"/>
    </g>
    <g fill="#f5fbff" font-size="22" font-weight="740">
      <text x="122" y="276">Camera and sensors</text>
      <text x="122" y="478">Audio input</text>
      <text x="520" y="352" text-anchor="middle">Local prototype shell</text>
      <text x="770" y="276">Display and face UI</text>
      <text x="770" y="478">Movement commands</text>
    </g>
    <g fill="#aebdcb" font-size="16">
      <text x="122" y="310">Public sensing category</text>
      <text x="122" y="512">Voice-oriented input category</text>
      <text x="520" y="386" text-anchor="middle">Routes safe status and demo output</text>
      <text x="770" y="310">Visible state and launcher surface</text>
      <text x="770" y="512">Cautious prototype control category</text>
    </g>
    <g stroke="url(#accent)" stroke-width="3" stroke-linecap="round" stroke-opacity="0.82" fill="none">
      <path d="M304 294c46 0 58 84 96 84"/>
      <path d="M304 496c46 0 58-84 96-84"/>
      <path d="M640 378c44 0 52-84 96-84"/>
      <path d="M640 412c44 0 52 84 96 84"/>
      <path d="M844 430v-70"/>
    </g>
    <g fill="#74f0e3">
      <path d="M400 378l-13-7v14z"/>
      <path d="M400 412l-13-7v14z"/>
      <path d="M736 294l-13-7v14z"/>
      <path d="M736 496l-13-7v14z"/>
      <path d="M844 360l-7 13h14z"/>
    </g>
    <rect x="418" y="502" width="204" height="48" rx="24" fill="#08111b" stroke="#74f0e3" stroke-opacity="0.42"/>
    <text x="520" y="532" text-anchor="middle" fill="#c7d3df" font-size="15">No private runtime detail shown</text>
  </g>
</svg>
